<?xml version="1.0" standalone="no"?>
<!DOCTYPE svg PUBLIC "-//W3C//DTD SVG 20010904//EN"
 "http://www.w3.org/TR/2001/REC-SVG-20010904/DTD/svg10.dtd">
<svg version="1.0" xmlns="http://www.w3.org/2000/svg"
 width="459.000000pt" height="112.000000pt" viewBox="0 0 459.000000 112.000000"
 preserveAspectRatio="xMidYMid meet">

<g transform="translate(0.000000,112.000000) scale(0.100000,-0.100000)"
fill="#000000" stroke="none">
<path d="M70 560 l0 -460 465 0 465 0 0 460 0 460 -465 0 -465 0 0 -460z m450
235 c0 -61 1 -65 23 -65 13 0 32 -7 43 -15 10 -8 31 -15 46 -15 15 0 33 -6 40
-14 8 -7 24 -16 36 -20 74 -24 82 -121 25 -299 l-38 -117 -119 2 -119 3 -51
100 c-28 55 -64 119 -79 141 -21 32 -28 51 -25 80 4 46 28 55 77 29 l31 -16 0
136 0 135 55 0 55 0 0 -65z"/>
<path d="M440 680 c0 -103 -3 -150 -11 -150 -6 0 -24 11 -41 25 -33 28 -58 32
-58 11 0 -8 24 -53 54 -100 30 -48 62 -107 72 -132 l17 -45 99 3 99 3 31 85
c18 49 33 112 36 148 3 56 1 67 -20 89 l-23 25 -5 -44 c-3 -29 -10 -43 -20
-43 -11 0 -16 14 -18 53 -3 43 -6 52 -22 52 -15 0 -19 -9 -22 -37 -2 -27 -8
-39 -20 -41 -15 -3 -18 5 -18 52 0 53 -1 56 -25 56 -24 0 -25 -3 -25 -55 0
-42 -3 -55 -15 -55 -13 0 -15 21 -15 125 l0 125 -25 0 -25 0 0 -150z"/>
<path d="M3560 560 l0 -460 465 0 465 0 0 460 0 460 -465 0 -465 0 0 -460z
m574 235 c19 -41 55 -106 81 -146 37 -57 45 -78 43 -108 -3 -31 -7 -36 -30
-39 -15 -2 -38 4 -52 13 l-25 17 -3 -134 -3 -133 -49 -3 c-59 -4 -66 4 -66 76
0 48 -2 52 -24 52 -13 0 -29 7 -36 15 -7 8 -24 15 -38 15 -26 0 -81 29 -119
63 -36 32 -32 142 9 266 17 53 33 102 34 109 3 9 36 12 124 12 l121 0 33 -75z"/>
<path d="M3853 732 c-42 -125 -44 -198 -8 -232 l25 -23 0 46 c0 35 4 47 15 47
12 0 15 -13 15 -55 0 -52 1 -55 25 -55 23 0 25 4 25 41 0 33 3 40 18 37 13 -2
18 -15 20 -56 3 -43 6 -52 22 -52 16 0 19 9 22 52 2 41 7 54 21 56 15 3 17 -8
17 -122 l0 -126 25 0 25 0 0 150 c0 163 4 174 50 125 25 -26 60 -34 60 -12 0
6 -14 32 -31 57 -16 25 -50 84 -75 133 l-44 87 -98 0 -97 -1 -32 -97z"/>
<path d="M1170 560 l0 -380 1120 0 1120 0 0 380 0 380 -1120 0 -1120 0 0 -380z
m990 144 c0 -20 4 -25 16 -20 9 4 27 -1 40 -9 20 -13 24 -24 24 -65 0 -43 -3
-50 -19 -50 -17 0 -20 8 -23 48 -2 34 -7 47 -18 47 -11 0 -16 -13 -18 -47 -3
-40 -6 -48 -23 -48 -17 0 -19 7 -19 85 0 78 2 85 20 85 15 0 20 -7 20 -26z
m-700 1 c0 -11 -11 -15 -41 -15 -33 0 -40 -3 -37 -17 2 -13 14 -19 41 -21 53
-5 51 -32 -3 -32 -57 0 -55 -28 2 -32 23 -2 43 -9 46 -15 3 -10 -13 -13 -57
-13 l-61 0 0 80 0 80 55 0 c42 0 55 -3 55 -15z m150 0 c0 -11 -11 -15 -40 -15
-33 0 -40 -3 -40 -20 0 -16 7 -20 35 -20 24 0 35 -5 35 -15 0 -10 -11 -15 -35
-15 -32 0 -35 -2 -35 -30 0 -23 -4 -30 -20 -30 -18 0 -20 7 -20 73 0 41 3 77
7 80 3 4 30 7 60 7 40 0 53 -4 53 -15z m210 0 c0 -9 -9 -15 -25 -15 -24 0 -25
-2 -25 -65 0 -58 -2 -65 -20 -65 -18 0 -20 7 -20 65 l0 65 -30 0 c-29 0 -38 9
-23 23 3 4 37 7 75 7 54 0 68 -3 68 -15z m140 0 c0 -11 -11 -15 -40 -15 -33 0
-40 -3 -40 -20 0 -16 7 -20 35 -20 24 0 35 -5 35 -15 0 -10 -11 -15 -35 -15
-24 0 -35 -5 -35 -15 0 -11 11 -15 40 -15 29 0 40 -4 40 -15 0 -12 -13 -15
-60 -15 l-60 0 0 80 0 80 60 0 c47 0 60 -3 60 -15z m103 -24 c13 -5 27 -17 30
-26 10 -24 -21 -31 -38 -9 -15 19 -15 19 -30 0 -18 -24 -19 -27 -1 -52 12 -15
17 -17 27 -6 7 6 21 12 31 12 26 0 12 -26 -23 -40 -24 -10 -33 -10 -54 4 -34
22 -36 87 -3 110 26 19 29 19 61 7z m-686 -289 c2 -26 -1 -32 -17 -32 -10 0
-22 5 -26 11 -4 8 1 9 17 5 23 -7 23 -6 5 8 -11 9 -16 22 -12 31 10 26 30 12
33 -23z m51 31 c-10 -2 -18 -9 -18 -14 0 -5 8 -10 18 -10 16 -1 16 -2 0 -6
-10 -2 -18 -8 -18 -13 0 -5 8 -11 18 -13 10 -3 6 -5 -10 -6 -25 -1 -28 2 -28
34 0 32 3 35 28 34 16 -1 20 -3 10 -6z m70 -32 c3 -31 2 -33 -13 -21 -14 12
-18 12 -26 -1 -6 -10 -9 -3 -9 24 0 34 3 38 23 35 17 -2 23 -11 25 -37z m27
12 l7 -28 13 30 c15 35 20 19 5 -19 -13 -35 -25 -33 -37 9 -6 19 -8 35 -3 35
4 0 11 -12 15 -27z m52 -25 c-2 -13 -4 -5 -4 17 -1 22 1 32 4 23 2 -10 2 -28
0 -40z m71 32 c4 -12 3 -13 -10 -3 -17 15 -28 7 -28 -20 0 -14 5 -18 20 -14
11 3 20 1 20 -4 0 -5 -11 -9 -24 -9 -29 0 -44 33 -25 56 15 18 40 15 47 -6z
m50 13 c-10 -2 -18 -9 -18 -14 0 -5 8 -10 18 -10 16 -1 16 -2 0 -6 -10 -2 -18
-8 -18 -13 0 -5 8 -11 18 -13 10 -3 6 -5 -10 -6 -24 -1 -28 3 -28 27 0 34 7
42 34 41 17 -1 18 -2 4 -6z m68 -5 c5 -8 2 -9 -9 -5 -10 3 -17 2 -17 -2 0 -5
7 -11 15 -15 25 -9 18 -36 -10 -36 -14 0 -25 4 -25 10 0 5 7 7 15 4 20 -8 19
6 -2 21 -17 13 -10 35 12 35 8 0 17 -5 21 -12z"/>
<path d="M1350 410 c0 -5 5 -10 11 -10 5 0 7 5 4 10 -3 6 -8 10 -11 10 -2 0
-4 -4 -4 -10z"/>
<path d="M1460 410 c0 -5 5 -10 11 -10 5 0 7 5 4 10 -3 6 -8 10 -11 10 -2 0
-4 -4 -4 -10z"/>
</g>
</svg>
